<svg width="16" height="10" viewBox="0 0 16 10" fill="none" xmlns="http://www.w3.org/2000/svg">
<path d="M10.625 0.219376C10.4779 0.101606 10.3005 0.0277926 10.1133 0.00644109C9.92609 -0.0149105 9.73665 0.0170689 9.56682 0.0986941C9.39698 0.180319 9.25367 0.308268 9.15338 0.467798C9.0531 0.627327 8.99993 0.811944 9 1.00038V4.00038H1C0.734784 4.00038 0.48043 4.10573 0.292893 4.29327C0.105357 4.48081 0 4.73516 0 5.00038C0 5.26559 0.105357 5.51995 0.292893 5.70748C0.48043 5.89502 0.734784 6.00038 1 6.00038H9V9.00038C8.99993 9.18881 9.0531 9.37342 9.15338 9.53295C9.25367 9.69248 9.39698 9.82043 9.56682 9.90206C9.73665 9.98368 9.92609 10.0157 10.1133 9.99431C10.3005 9.97296 10.4779 9.89915 10.625 9.78138L15.625 5.78138C15.7422 5.68769 15.8367 5.56885 15.9017 5.43366C15.9667 5.29847 16.0005 5.15038 16.0005 5.00038C16.0005 4.85037 15.9667 4.70229 15.9017 4.56709C15.8367 4.4319 15.7422 4.31306 15.625 4.21938L10.625 0.219376Z" fill="white"/>
</svg>
