<svg width="16" height="16" viewBox="0 0 16 16" fill="none" xmlns="http://www.w3.org/2000/svg">
<g clip-path="url(#clip0_1572_4132)">
<path d="M15.8506 2.475C15.761 2.32982 15.6358 2.20995 15.4869 2.12681C15.3379 2.04367 15.1702 2.00002 14.9996 2H7.44457C7.0043 1.23743 6.32471 0.64145 5.5112 0.304483C4.69769 -0.0324836 3.79573 -0.0916016 2.94519 0.136298C2.09466 0.364198 1.34309 0.866379 0.807055 1.56496C0.271019 2.26353 -0.0195312 3.11946 -0.0195312 4C-0.0195312 4.88054 0.271019 5.73647 0.807055 6.43505C1.34309 7.13362 2.09466 7.63581 2.94519 7.8637C3.79573 8.0916 4.69769 8.03249 5.5112 7.69552C6.32471 7.35855 7.0043 6.76257 7.44457 6H13.9996C14.1854 6.00009 14.3676 5.94839 14.5257 5.85071C14.6838 5.75303 14.8115 5.61323 14.8946 5.447L15.8946 3.447C15.9706 3.29464 16.0065 3.12539 15.9988 2.95529C15.9911 2.78519 15.9401 2.61987 15.8506 2.475ZM3.49957 5.5C3.2029 5.5 2.91289 5.41203 2.66621 5.24721C2.41954 5.08238 2.22728 4.84812 2.11375 4.57403C2.00022 4.29994 1.97051 3.99834 2.02839 3.70737C2.08627 3.41639 2.22913 3.14912 2.43891 2.93934C2.64869 2.72956 2.91596 2.5867 3.20693 2.52882C3.49791 2.47095 3.79951 2.50065 4.0736 2.61418C4.34768 2.72771 4.58195 2.91997 4.74677 3.16665C4.9116 3.41332 4.99957 3.70333 4.99957 4C4.99957 4.39783 4.84154 4.77936 4.56023 5.06066C4.27893 5.34197 3.8974 5.5 3.49957 5.5Z" fill="white"/>
<path d="M13 12C12.8269 12.0026 12.6548 12.0275 12.488 12.074L11 10.586V9C11 8.73478 10.8946 8.48043 10.7071 8.29289C10.5196 8.10536 10.2652 8 10 8C9.73478 8 9.48043 8.10536 9.29289 8.29289C9.10536 8.48043 9 8.73478 9 9V11C9.00006 11.2652 9.10545 11.5195 9.293 11.707L11.074 13.488C10.967 13.892 10.9893 14.3194 11.1377 14.7101C11.2861 15.1009 11.5532 15.4353 11.9014 15.6664C12.2496 15.8975 12.6615 16.0137 13.0792 15.9987C13.4969 15.9837 13.8994 15.8382 14.2301 15.5827C14.5609 15.3271 14.8032 14.9744 14.9232 14.5741C15.0432 14.1737 15.0347 13.7458 14.899 13.3505C14.7632 12.9552 14.5071 12.6124 14.1665 12.3701C13.8259 12.1279 13.4179 11.9985 13 12Z" fill="white"/>
<path d="M6.70701 10.2928C6.51949 10.1053 6.26518 10 6.00001 10C5.73485 10 5.48054 10.1053 5.29301 10.2928L3.51201 12.0738C3.23589 11.9966 2.9464 11.9797 2.66316 12.0242C2.37993 12.0687 2.10958 12.1736 1.87043 12.3317C1.63129 12.4899 1.42894 12.6976 1.2771 12.9408C1.12527 13.184 1.0275 13.457 0.990427 13.7413C0.95335 14.0256 0.977833 14.3146 1.06221 14.5886C1.1466 14.8626 1.28891 15.1153 1.47949 15.3295C1.67008 15.5436 1.90449 15.7144 2.16684 15.83C2.42918 15.9457 2.71333 16.0036 3.00001 15.9998C3.30729 16.0035 3.6112 15.9356 3.88761 15.8013C4.16401 15.667 4.40529 15.4701 4.59227 15.2262C4.77924 14.9824 4.90677 14.6983 4.9647 14.3965C5.02264 14.0947 5.00939 13.7836 4.92601 13.4878L6.70701 11.7068C6.89448 11.5193 6.9998 11.265 6.9998 10.9998C6.9998 10.7346 6.89448 10.4803 6.70701 10.2928Z" fill="white"/>
</g>
<defs>
<clipPath id="clip0_1572_4132">
<rect width="16" height="16" fill="white"/>
</clipPath>
</defs>
</svg>
