<svg width="157" height="25" viewBox="0 0 157 25" fill="none" xmlns="http://www.w3.org/2000/svg">
<path d="M141.472 24.5386V1.05713H156.517V5.19497H146.532V10.5775H156.18V14.7154H146.532V20.4007H156.517V24.5386H141.472Z" fill="white"/>
<path d="M127.991 14.749L125.9 17.6758V24.5386H120.84V1.05713H125.9V10.8803H126.17L128.734 6.97795L132.883 1.05713H138.55L131.5 10.9812L138.888 24.5386H133.186L127.991 14.749Z" fill="white"/>
<path d="M112.993 24.5386L111.509 18.8869H105.065L103.615 24.5386H98.4873L104.863 1.05713H112.015L118.39 24.5386H112.993ZM108.439 5.93508H108.169L105.875 14.8163H110.733L108.439 5.93508Z" fill="white"/>
<path d="M90.742 5.19497V24.5386H85.6819V5.19497H78.9014V1.05713H97.5225V5.19497H90.742Z" fill="white"/>
<path d="M67.6135 24.9421C65.6345 24.9421 63.914 24.6169 62.4522 23.9666C60.9904 23.3162 59.8097 22.4303 58.9102 21.3089L61.845 18.0794C62.6996 19.0213 63.6329 19.7166 64.6449 20.1651C65.6794 20.6137 66.7252 20.8379 67.7822 20.8379C68.9966 20.8379 69.9187 20.5688 70.5484 20.0306C71.1781 19.4923 71.4929 18.7186 71.4929 17.7093C71.4929 16.8795 71.2456 16.2515 70.7508 15.8254C70.2785 15.3993 69.4689 15.0965 68.3219 14.9171L65.8594 14.5134C63.7454 14.1546 62.2161 13.3808 61.2715 12.1922C60.327 10.9811 59.8547 9.51212 59.8547 7.78522C59.8547 5.52006 60.5969 3.77072 62.0812 2.53722C63.5654 1.28129 65.6457 0.65332 68.3219 0.65332C70.1436 0.65332 71.7291 0.933662 73.0784 1.49435C74.4278 2.05503 75.5185 2.81756 76.3506 3.78194L73.4832 6.97783C72.8535 6.28259 72.1114 5.74433 71.2568 5.36306C70.4022 4.95937 69.4352 4.75753 68.3557 4.75753C66.0843 4.75753 64.9485 5.68826 64.9485 7.54973C64.9485 8.35712 65.1959 8.96265 65.6907 9.36635C66.2079 9.77004 67.04 10.0728 68.187 10.2747L70.6496 10.712C72.5612 11.0484 74.0342 11.7661 75.0687 12.865C76.1032 13.964 76.6205 15.4442 76.6205 17.3056C76.6205 18.4046 76.4293 19.425 76.047 20.367C75.6647 21.2865 75.0912 22.0939 74.3266 22.7891C73.5619 23.4619 72.6174 23.989 71.4929 24.3702C70.391 24.7515 69.0978 24.9421 67.6135 24.9421Z" fill="white"/>
<path d="M44.1812 24.5386L37.9404 1.05713H43.574L46.3402 12.9997L47.7233 19.7615H47.9932L49.41 12.9997L52.2099 1.05713H57.5736L51.3328 24.5386H44.1812Z" fill="white"/>
<path d="M20.1084 24.5386V1.05713H35.1538V5.19497H25.1685V10.5775H34.8164V14.7154H25.1685V20.4007H35.1538V24.5386H20.1084Z" fill="white"/>
<path d="M0.286133 24.5386V1.05713H5.37997V20.4007H15.5002V24.5386H0.286133Z" fill="white"/>
</svg>
