<svg width="13" height="12" viewBox="0 0 13 12" fill="none" xmlns="http://www.w3.org/2000/svg">
<g clip-path="url(#clip0_1706_5320)">
<path d="M8.82129 0C7.84629 0 6.87129 0.375 6.19629 1.125L5.29629 1.95C4.99629 2.25 4.99629 2.7 5.29629 3C5.59629 3.3 6.04629 3.3 6.34629 3L7.24629 2.1C8.07129 1.275 9.57129 1.275 10.3963 2.1C10.8463 2.55 11.0713 3.15 11.0713 3.75C11.0713 4.35 10.8463 4.95 10.3963 5.325L9.57129 6.225C9.27129 6.525 9.27129 6.975 9.57129 7.275C9.72129 7.425 9.94629 7.5 10.0963 7.5C10.2463 7.5 10.4713 7.425 10.6213 7.275L11.5213 6.375C12.1963 5.7 12.5713 4.725 12.5713 3.75C12.5713 2.775 12.1963 1.8 11.4463 1.125C10.7713 0.375 9.79629 0 8.82129 0Z" fill="#49D8CD"/>
<path d="M6.79629 9L5.89629 9.9C5.07129 10.725 3.57129 10.725 2.74629 9.9C2.29629 9.45 2.07129 8.85 2.07129 8.25C2.07129 7.65 2.29629 7.05 2.74629 6.675L3.57129 5.775C3.87129 5.475 3.87129 5.025 3.57129 4.725C3.27129 4.425 2.82129 4.425 2.52129 4.725L1.69629 5.625C0.946289 6.3 0.571289 7.275 0.571289 8.25C0.571289 9.225 0.946289 10.2 1.69629 10.875C2.37129 11.625 3.34629 12 4.32129 12C5.29629 12 6.27129 11.625 6.94629 10.875L7.84629 9.975C8.14629 9.675 8.14629 9.225 7.84629 8.925C7.54629 8.625 7.09629 8.7 6.79629 9Z" fill="#49D8CD"/>
<path d="M7.62109 3.89999L4.47109 7.04999C4.17109 7.34999 4.17109 7.79999 4.47109 8.09999C4.62109 8.24999 4.84609 8.32499 4.99609 8.32499C5.14609 8.32499 5.37109 8.24999 5.52109 8.09999L8.67109 4.94999C8.97109 4.64999 8.97109 4.19999 8.67109 3.89999C8.37109 3.59999 7.92109 3.59999 7.62109 3.89999Z" fill="#49D8CD"/>
</g>
<defs>
<clipPath id="clip0_1706_5320">
<rect width="12" height="12" fill="white" transform="translate(0.571289)"/>
</clipPath>
</defs>
</svg>
