<svg width="48" height="48" viewBox="0 0 48 48" fill="none" xmlns="http://www.w3.org/2000/svg">
<path d="M44 2H4C3.46957 2 2.96086 2.21071 2.58579 2.58579C2.21071 2.96086 2 3.46957 2 4V44C2 44.5304 2.21071 45.0391 2.58579 45.4142C2.96086 45.7893 3.46957 46 4 46H44C44.5304 46 45.0391 45.7893 45.4142 45.4142C45.7893 45.0391 46 44.5304 46 44V4C46 3.46957 45.7893 2.96086 45.4142 2.58579C45.0391 2.21071 44.5304 2 44 2ZM23 38C22.4067 38 21.8266 37.8241 21.3333 37.4944C20.8399 37.1648 20.4554 36.6962 20.2284 36.1481C20.0013 35.5999 19.9419 34.9967 20.0576 34.4147C20.1734 33.8328 20.4591 33.2982 20.8787 32.8787C21.2982 32.4591 21.8328 32.1734 22.4147 32.0576C22.9967 31.9419 23.5999 32.0013 24.1481 32.2284C24.6962 32.4554 25.1648 32.8399 25.4944 33.3333C25.8241 33.8266 26 34.4067 26 35C26 35.7957 25.6839 36.5587 25.1213 37.1213C24.5587 37.6839 23.7957 38 23 38ZM31.622 20.254C30.364 22.266 26.562 24.554 25.846 25.594C25.4344 26.3224 25.2682 27.1639 25.372 27.994H20.458C20.3149 26.6273 20.5793 25.2488 21.218 24.032C22.652 21.548 25.17 20.928 26.568 18.97C27.0192 18.4288 27.2434 17.7339 27.1934 17.031C27.1435 16.3281 26.8233 15.6719 26.3 15.2C24.172 13.694 19.914 15.14 17.474 16.386L15.452 12.32C18.123 10.7952 21.1464 9.99538 24.222 10C28.778 10 32.548 12.228 32.548 16.732C32.5807 17.9702 32.2594 19.192 31.622 20.254Z" fill="white"/>
</svg>
