<svg width="15" height="15" viewBox="0 0 15 15" fill="none" xmlns="http://www.w3.org/2000/svg">
<path d="M14.9993 0.527252C15.0034 0.457196 14.9926 0.387067 14.9678 0.321424C14.943 0.255782 14.9047 0.196097 14.8553 0.146252C14.8059 0.0954875 14.7461 0.0561188 14.6799 0.0309C14.6138 0.00568122 14.5429 -0.00477875 14.4723 0.00025187C11.9823 0.110271 9.5633 0.863769 7.45128 2.18725C6.13902 1.67839 4.68843 1.65354 3.35951 2.11716C2.03059 2.58078 0.910243 3.50255 0.199283 4.71725C0.143462 4.81267 0.120838 4.92391 0.134951 5.03355C0.149064 5.1432 0.199117 5.24508 0.277283 5.32325L2.34828 7.39325C2.02356 7.90835 1.73487 8.4453 1.48428 9.00025C1.44761 9.09136 1.43857 9.19126 1.45831 9.28747C1.47805 9.38368 1.52569 9.47195 1.59528 9.54125L5.45628 13.4003C5.52576 13.4702 5.61438 13.5181 5.711 13.5379C5.80761 13.5576 5.90792 13.5484 5.99928 13.5113C6.55202 13.2607 7.08665 12.972 7.59928 12.6473L9.67828 14.7263C9.75603 14.803 9.85679 14.8522 9.96515 14.8663C10.0735 14.8804 10.1835 14.8586 10.2783 14.8043C11.4998 14.0899 12.4254 12.962 12.8878 11.6246C13.3501 10.2872 13.3187 8.82853 12.7993 7.51225C14.1175 5.41017 14.8749 3.00533 14.9993 0.527252ZM7.99928 8.50025C7.70261 8.50025 7.4126 8.41228 7.16593 8.24746C6.91925 8.08263 6.72699 7.84837 6.61346 7.57428C6.49993 7.30019 6.47023 6.99859 6.5281 6.70762C6.58598 6.41665 6.72884 6.14937 6.93862 5.93959C7.1484 5.72981 7.41568 5.58695 7.70665 5.52907C7.99762 5.4712 8.29922 5.5009 8.57331 5.61443C8.8474 5.72796 9.08167 5.92022 9.24649 6.1669C9.41131 6.41357 9.49928 6.70358 9.49928 7.00025C9.49928 7.39808 9.34125 7.77961 9.05994 8.06091C8.77864 8.34222 8.39711 8.50025 7.99928 8.50025Z" fill="#9578F9"/>
</svg>
