<svg width="16" height="17" viewBox="0 0 16 17" fill="none" xmlns="http://www.w3.org/2000/svg">
<g clip-path="url(#clip0_1572_614)">
<path d="M3.89975 12.6005C3.51408 12.2153 2.99131 11.999 2.44625 11.999C1.9012 11.999 1.37843 12.2153 0.992754 12.6005C0.292754 13.3005 0.0457543 15.5135 0.00375429 15.9505C-0.0031698 16.0159 0.00288189 16.082 0.0215626 16.1451C0.0402434 16.2082 0.0711859 16.2669 0.112617 16.318C0.154049 16.3691 0.205155 16.4115 0.263007 16.4429C0.320859 16.4742 0.38432 16.4937 0.449754 16.5005H0.499754H0.546754C0.983754 16.4585 3.19775 16.2105 3.89675 15.5115C4.28303 15.1258 4.50033 14.6025 4.50089 14.0566C4.50145 13.5107 4.28523 12.987 3.89975 12.6005Z" fill="white"/>
<path d="M15.9993 1.02725C16.0034 0.957196 15.9926 0.887067 15.9678 0.821424C15.943 0.755782 15.9047 0.696097 15.8553 0.646252C15.8059 0.595487 15.7461 0.556119 15.6799 0.5309C15.6138 0.505681 15.5429 0.495221 15.4723 0.500252C12.9823 0.610271 10.5633 1.36377 8.45128 2.68725C7.13902 2.17839 5.68843 2.15354 4.35951 2.61716C3.03059 3.08078 1.91024 4.00255 1.19928 5.21725C1.14346 5.31267 1.12084 5.42391 1.13495 5.53355C1.14906 5.6432 1.19912 5.74508 1.27728 5.82325L3.34828 7.89325C3.02356 8.40835 2.73487 8.9453 2.48428 9.50025C2.44761 9.59136 2.43857 9.69126 2.45831 9.78747C2.47805 9.88368 2.52569 9.97195 2.59528 10.0413L6.45628 13.9003C6.52576 13.9702 6.61438 14.0181 6.711 14.0379C6.80761 14.0576 6.90792 14.0484 6.99928 14.0113C7.55202 13.7607 8.08665 13.472 8.59928 13.1473L10.6783 15.2263C10.756 15.303 10.8568 15.3522 10.9651 15.3663C11.0735 15.3804 11.1835 15.3586 11.2783 15.3043C12.4998 14.5899 13.4254 13.462 13.8878 12.1246C14.3501 10.7872 14.3187 9.32853 13.7993 8.01225C15.1175 5.91017 15.8749 3.50533 15.9993 1.02725ZM8.99928 9.00025C8.70261 9.00025 8.4126 8.91228 8.16593 8.74746C7.91925 8.58263 7.72699 8.34837 7.61346 8.07428C7.49993 7.80019 7.47023 7.49859 7.5281 7.20762C7.58598 6.91665 7.72884 6.64937 7.93862 6.43959C8.1484 6.22981 8.41568 6.08695 8.70665 6.02907C8.99762 5.9712 9.29922 6.0009 9.57331 6.11443C9.8474 6.22796 10.0817 6.42022 10.2465 6.6669C10.4113 6.91357 10.4993 7.20358 10.4993 7.50025C10.4993 7.89808 10.3412 8.27961 10.0599 8.56091C9.77864 8.84222 9.39711 9.00025 8.99928 9.00025Z" fill="white"/>
</g>
<defs>
<clipPath id="clip0_1572_614">
<rect width="16" height="16" fill="white" transform="translate(0 0.5)"/>
</clipPath>
</defs>
</svg>
