<svg width="16" height="16" viewBox="0 0 16 16" fill="none" xmlns="http://www.w3.org/2000/svg">
<path d="M3.89975 12.1005C3.51408 11.7153 2.99131 11.499 2.44625 11.499C1.9012 11.499 1.37843 11.7153 0.992754 12.1005C0.292754 12.8005 0.0457543 15.0135 0.00375429 15.4505C-0.0031698 15.5159 0.00288189 15.582 0.0215626 15.6451C0.0402434 15.7082 0.0711859 15.7669 0.112617 15.818C0.154049 15.8691 0.205155 15.9115 0.263007 15.9429C0.320859 15.9742 0.38432 15.9937 0.449754 16.0005H0.499754H0.546754C0.983754 15.9585 3.19775 15.7105 3.89675 15.0115C4.28303 14.6258 4.50033 14.1025 4.50089 13.5566C4.50145 13.0107 4.28523 12.487 3.89975 12.1005Z" fill="#9578F9"/>
<path d="M15.9993 0.527252C16.0034 0.457196 15.9926 0.387067 15.9678 0.321424C15.943 0.255782 15.9047 0.196097 15.8553 0.146252C15.8059 0.0954875 15.7461 0.0561188 15.6799 0.0309C15.6138 0.00568122 15.5429 -0.00477875 15.4723 0.00025187C12.9823 0.110271 10.5633 0.863769 8.45128 2.18725C7.13902 1.67839 5.68843 1.65354 4.35951 2.11716C3.03059 2.58078 1.91024 3.50255 1.19928 4.71725C1.14346 4.81267 1.12084 4.92391 1.13495 5.03355C1.14906 5.1432 1.19912 5.24508 1.27728 5.32325L3.34828 7.39325C3.02356 7.90835 2.73487 8.4453 2.48428 9.00025C2.44761 9.09136 2.43857 9.19126 2.45831 9.28747C2.47805 9.38368 2.52569 9.47195 2.59528 9.54125L6.45628 13.4003C6.52576 13.4702 6.61438 13.5181 6.711 13.5379C6.80761 13.5576 6.90792 13.5484 6.99928 13.5113C7.55202 13.2607 8.08665 12.972 8.59928 12.6473L10.6783 14.7263C10.756 14.803 10.8568 14.8522 10.9651 14.8663C11.0735 14.8804 11.1835 14.8586 11.2783 14.8043C12.4998 14.0899 13.4254 12.962 13.8878 11.6246C14.3501 10.2872 14.3187 8.82853 13.7993 7.51225C15.1175 5.41017 15.8749 3.00533 15.9993 0.527252ZM8.99928 8.50025C8.70261 8.50025 8.4126 8.41228 8.16593 8.24746C7.91925 8.08263 7.72699 7.84837 7.61346 7.57428C7.49993 7.30019 7.47023 6.99859 7.5281 6.70762C7.58598 6.41665 7.72884 6.14937 7.93862 5.93959C8.1484 5.72981 8.41568 5.58695 8.70665 5.52907C8.99762 5.4712 9.29922 5.5009 9.57331 5.61443C9.8474 5.72796 10.0817 5.92022 10.2465 6.1669C10.4113 6.41357 10.4993 6.70358 10.4993 7.00025C10.4993 7.39808 10.3412 7.77961 10.0599 8.06091C9.77864 8.34222 9.39711 8.50025 8.99928 8.50025Z" fill="#9578F9"/>
</svg>
