<svg width="12" height="12" viewBox="0 0 12 12" fill="none" xmlns="http://www.w3.org/2000/svg">
<path d="M12 2.25C12 0.0630001 6.61425 0 6 0C5.38575 0 0 0.0630001 0 2.25C0 2.59275 0.14325 2.87775 0.369 3.1245L4.5 7.7775V11.25C4.5 11.6648 4.836 12 5.25 12H6.75C7.164 12 7.5 11.6648 7.5 11.25V7.7775L11.6025 3.15525C11.8455 2.9025 12 2.607 12 2.25ZM6 1.5C8.35275 1.5 9.86625 1.938 10.3717 2.25C9.86625 2.562 8.35275 3 6 3C3.64725 3 2.13375 2.562 1.62825 2.25C2.13375 1.938 3.64725 1.5 6 1.5Z" fill="white"/>
</svg>
